<svg version="1.2" xmlns="http://www.w3.org/2000/svg" viewBox="0 0 240 56" width="240" height="56">
	<title>logo-svg</title>
	<style>
		.s0 { fill: #54ff00 } 
		.s1 { fill: #ffffff } 
		.s2 { fill: #a6a6a6 } 
		.s3 { fill: #000000 } 
	</style>
	<g id="Warstwa_x0020_1">
		<path id="Layer" class="s0" d="m32 54c-14.4 0-26-11.6-26-26 0-14.4 11.6-26 26-26 14.4 0 26 11.6 26 26 0 14.4-11.6 26-26 26z"/>
		<path id="Layer" fill-rule="evenodd" class="s1" d="m51 10.2l-19.3 36.7-25.1-13.2q-0.6-2.8-0.6-5.7c0-14.4 11.6-26 26-26 7.5 0 14.2 3.2 19 8.2z"/>
		<path id="Layer" fill-rule="evenodd" class="s2" d="m32 2c6.5 0 12.5 2.4 17.1 6.4l-18.5 35.1-24.5-12.9q-0.1-1.3-0.1-2.6c0-14.4 11.6-26 26-26z"/>
	</g>
	<path id="BEST-BRUK" fill-rule="evenodd" class="s3" d="m68.8 17.6h8.1c4.5 0 6.8 2.2 6.8 5.3 0 2.4-1.6 3.9-3.7 4.3v0.2c2.3 0.1 4.5 2 4.5 5 0 3.2-2.5 5.6-7 5.6h-8.7zm7.8 16.8c2.4 0 3.4-1 3.4-2.5 0-1.7-1.2-2.9-3.3-2.9h-3.6v5.4zm-0.3-8.3c1.7 0 3-1 3-2.6 0-1.4-1.1-2.4-3-2.4h-3.2v5zm11-8.5h13.7v3.5h-9.4v4.9h8.7v3.6h-8.7v4.8h9.4v3.6h-13.7zm24.7 3.3c-2.1 0-3.3 0.9-3.3 2.3 0 1.4 1.5 2.1 3.2 2.5l1.9 0.4c3.5 0.8 6.1 2.6 6.1 6 0 3.7-3 6.1-7.9 6.1-5 0-8.1-2.3-8.2-6.7h4.1c0.2 2.1 1.8 3.1 4 3.1 2.2 0 3.6-1 3.6-2.5 0-1.4-1.2-2-3.4-2.5l-2.2-0.6c-3.5-0.8-5.6-2.5-5.6-5.6 0-3.6 3.3-6.1 7.7-6.1 4.6 0 7.5 2.5 7.6 6.1h-4.1c-0.2-1.6-1.5-2.5-3.5-2.5zm10-3.3h16.7v3.5h-6.2v16.8h-4.3v-16.8h-6.2zm28.1 11.9h-9.3v-3.4h9.3zm3.7-11.8h8.1c4.5 0 6.8 2.1 6.8 5.2 0 2.4-1.6 3.9-3.7 4.3v0.2c2.3 0.2 4.5 2 4.5 5 0 3.2-2.5 5.6-7 5.6h-8.7zm7.8 16.9c2.4 0 3.4-1 3.4-2.6 0-1.7-1.2-2.8-3.3-2.8h-3.6v5.4zm-0.3-8.4c1.7 0 3-0.9 3-2.5 0-1.5-1.1-2.5-3-2.5h-3.2v5zm11-8.5h8c4.6 0 7.3 2.6 7.3 6.7 0 2.8-1.3 4.8-3.6 5.8l4.3 7.9h-4.7l-3.9-7.2h-3.1v7.2h-4.3zm7.2 9.7q3.7 0 3.7-3.1c0-2-1.2-3.1-3.7-3.1h-2.9v6.2zm28-9.7v13.2c0 4.5-3.4 7.4-8.4 7.4-5.1 0-8.5-2.9-8.5-7.4v-13.2h4.3v12.8c0 2.4 1.7 4 4.2 4 2.5 0 4.1-1.6 4.1-4v-12.8zm3.5 0h4.4v9h0.2l7.3-9h5.2l-7.5 9.1 7.6 11.2h-5.2l-5.5-8.3-2.1 2.6v5.7h-4.4z"/>
</svg>